<?xml version="1.0" encoding="UTF-8"?>
<svg id="Layer_2" xmlns="http://www.w3.org/2000/svg" xmlns:xlink="http://www.w3.org/1999/xlink" version="1.1" viewBox="0 0 226.8 226.8">
  <!-- Generator: Adobe Illustrator 29.0.0, SVG Export Plug-In . SVG Version: 2.1.0 Build 186)  -->
  <defs>
    <style>
      .st0, .st1 {
        fill: none;
      }

      .st2 {
        mask: url(#mask);
      }

      .st3, .st4 {
        fill: #fff;
      }

      .st3, .st5 {
        fill-rule: evenodd;
      }

      .st6 {
        fill: #f0eff5;
      }

      .st6, .st1, .st7, .st8 {
        stroke: #fff;
      }

      .st6, .st7 {
        stroke-width: 20px;
      }

      .st9 {
        fill: url(#linear-gradient);
      }

      .st1 {
        stroke-width: 86px;
      }

      .st10 {
        mask: url(#mask-2);
      }

      .st11 {
        mask: url(#mask-1);
      }

      .st12 {
        fill: #ec87c9;
      }

      .st13 {
        fill: #f8c702;
      }

      .st14 {
        clip-path: url(#clippath-1);
      }

      .st7 {
        fill: url(#linear-gradient2);
      }

      .st8 {
        fill: url(#linear-gradient1);
        stroke-width: 30px;
      }

      .st15 {
        clip-path: url(#clippath);
      }

      .st5 {
        fill: #d2d1d6;
        stroke: #cac9ce;
        stroke-width: 16px;
      }

      .st16 {
        fill: #eae9ee;
      }
    </style>
    <clipPath id="clippath">
      <rect class="st0" width="226.8" height="226.8" rx="49.6" ry="49.6"/>
    </clipPath>
    <linearGradient id="linear-gradient" x1="113.4" y1="227" x2="113.4" y2="58.2" gradientTransform="translate(0 227) scale(1 -1)" gradientUnits="userSpaceOnUse">
      <stop offset="0" stop-color="#7fed7d"/>
      <stop offset="1" stop-color="#2ed058"/>
    </linearGradient>
    <clipPath id="clippath-1">
      <rect class="st0" x="141.8" width="85.1" height="90.8"/>
    </clipPath>
    <mask id="mask" x="138.3" y="-95.6" width="189.9" height="189.9" maskUnits="userSpaceOnUse">
      <g id="path-7-inside-1_0_1">
        <path class="st3" d="M233.2,56.9c31.8,0,57.6-25.8,57.6-57.6s-25.8-57.6-57.6-57.6S175.6-32.5,175.6-.7s25.8,57.6,57.6,57.6ZM233.2,86.3c48,0,87-38.9,87-87s-38.9-87-87-87S146.3-48.7,146.3-.7s38.9,87,87,87Z"/>
      </g>
    </mask>
    <mask id="mask-1" x="-44.8" y="-13.1" width="303.2" height="257.5" maskUnits="userSpaceOnUse">
      <g id="path-8-inside-2_0_1">
        <path class="st4" d="M124.4-3.1H49.1v48.9c0,2.8-3.1,4.5-5.5,3L2.3,22l-33.3,51.4,242.2,157.1,33.3-51.4-120.2-77.9V-3.1Z"/>
      </g>
    </mask>
    <mask id="mask-2" x="43.5" y="-21.6" width="86.7" height="150" maskUnits="userSpaceOnUse">
      <g id="path-9-inside-3_0_1">
        <path class="st4" d="M58.5-6.6h56.7v120h-56.7V-6.6Z"/>
      </g>
    </mask>
    <linearGradient id="linear-gradient1" x1="86.8" y1="233.6" x2="86.8" y2="113.6" gradientTransform="translate(0 227) scale(1 -1)" gradientUnits="userSpaceOnUse">
      <stop offset="0" stop-color="#318df8"/>
      <stop offset="1" stop-color="#4081fa"/>
    </linearGradient>
    <linearGradient id="linear-gradient2" x1="86.8" y1="143.7" x2="86.8" y2="29.4" gradientTransform="translate(0 227) scale(1 -1)" gradientUnits="userSpaceOnUse">
      <stop offset="0" stop-color="#4c87fb"/>
      <stop offset="1" stop-color="#2d76f6"/>
    </linearGradient>
  </defs>
  <g id="iOS_15_beta_2_Apple_Maps_icon">
    <g id="Maps_512">
      <g class="st15">
        <g>
          <g id="bg">
            <rect id="bg_yellow" class="st13" x="114.7" y="168.8" width="112.1" height="58"/>
            <rect id="bg_green" class="st9" width="226.8" height="168.8"/>
            <rect id="bg_pink" class="st12" y="83.3" width="58.5" height="143.5"/>
          </g>
          <g id="_x32_">
            <g id="_x33_">
              <g class="st14">
                <g>
                  <circle id="Ellipse_4" class="st1" cx="233.2" cy="-.7" r="72.4"/>
                  <g id="Ellipse_5__x28_Stroke_x29_">
                    <g class="st2">
                      <path class="st5" d="M233.2,56.9c31.8,0,57.6-25.8,57.6-57.6s-25.8-57.6-57.6-57.6S175.6-32.5,175.6-.7s25.8,57.6,57.6,57.6ZM233.2,86.3c48,0,87-38.9,87-87s-38.9-87-87-87S146.3-48.7,146.3-.7s38.9,87,87,87Z"/>
                    </g>
                  </g>
                </g>
              </g>
            </g>
            <g id="Union">
              <g class="st11">
                <path class="st6" d="M124.4-3.1H49.1v48.9c0,2.8-3.1,4.5-5.5,3L2.3,22l-33.3,51.4,242.2,157.1,33.3-51.4-120.2-77.9V-3.1Z"/>
              </g>
            </g>
            <g id="Rectangle_2">
              <g class="st10">
                <path class="st8" d="M58.5-6.6h56.7v120h-56.7V-6.6Z"/>
              </g>
            </g>
            <path id="Rectangle_1" class="st16" d="M58.5,113.4h56.7v113.4h-56.7v-113.4Z"/>
          </g>
          <g id="_x31_">
            <circle id="Ellipse_1" class="st7" cx="86.8" cy="140.4" r="52.7"/>
            <path id="Subtract" class="st4" d="M92.2,106.1c-1.8-5-9-5-10.8,0l-20.4,58c-1.4,3.9,3.4,7.1,6.4,4.3l19.3-17.6,19.3,17.6c3.1,2.8,7.8-.4,6.4-4.3l-20.4-58Z"/>
          </g>
        </g>
      </g>
    </g>
  </g>
</svg>